<?xml version="1.0" encoding="UTF-8"?>
<!DOCTYPE svg PUBLIC "-//W3C//DTD SVG 1.1//EN" "http://www.w3.org/Graphics/SVG/1.1/DTD/svg11.dtd">
<svg xmlns="http://www.w3.org/2000/svg" version="1.1" width="512px" height="512px" style="shape-rendering:geometricPrecision; text-rendering:geometricPrecision; image-rendering:optimizeQuality; fill-rule:evenodd; clip-rule:evenodd" xmlns:xlink="http://www.w3.org/1999/xlink">
<g><path style="opacity:0.024" fill="#43443f" d="M 15.5,0.5 C 17.1992,0.339822 18.8659,0.506489 20.5,1C 14.6667,8.16667 8.16667,14.6667 1,20.5C 0.143313,17.4495 0.809979,14.7828 3,12.5C 7.06209,8.26879 11.2288,4.26879 15.5,0.5 Z"/></g>
<g><path style="opacity:0.034" fill="#43443f" d="M 35.5,0.5 C 37.1992,0.339822 38.8659,0.506489 40.5,1C 28,14.8333 14.8333,28 1,40.5C 0.143313,37.4495 0.809979,34.7828 3,32.5C 13.7284,21.604 24.5617,10.9373 35.5,0.5 Z"/></g>
<g><path style="opacity:0.037" fill="#43443f" d="M 55.5,0.5 C 57.1992,0.339822 58.8659,0.506489 60.5,1C 41.3333,21.5 21.5,41.3333 1,60.5C 0.143313,57.4495 0.809979,54.7828 3,52.5C 20.395,34.9377 37.895,17.6044 55.5,0.5 Z"/></g>
<g><path style="opacity:0.039" fill="#43443f" d="M 75.5,0.5 C 77.1992,0.339822 78.8659,0.506489 80.5,1C 54.6667,28.1667 28.1667,54.6667 1,80.5C 0.143313,77.4495 0.809979,74.7828 3,72.5C 27.0616,48.2713 51.2283,24.2713 75.5,0.5 Z"/></g>
<g><path style="opacity:0.04" fill="#43443f" d="M 95.5,0.5 C 97.1992,0.339822 98.8659,0.506489 100.5,1C 68,34.8333 34.8333,68 1,100.5C 0.143313,97.4495 0.809979,94.7828 3,92.5C 33.7283,61.6047 64.5616,30.938 95.5,0.5 Z"/></g>
<g><path style="opacity:0.04" fill="#43443f" d="M 115.5,0.5 C 117.199,0.339822 118.866,0.506489 120.5,1C 81.3333,41.5 41.5,81.3333 1,120.5C 0.143313,117.449 0.809979,114.783 3,112.5C 40.3949,74.9381 77.8949,37.6048 115.5,0.5 Z"/></g>
<g><path style="opacity:0.042" fill="#43443f" d="M 39.5,103.5 C 37.1667,103.5 34.8333,103.5 32.5,103.5C 65.6319,69.868 98.9652,36.368 132.5,3C 134.783,0.809979 137.449,0.143313 140.5,1C 106.993,35.3401 73.3264,69.5068 39.5,103.5 Z"/></g>
<g><path style="opacity:0.042" fill="#43443f" d="M 59.5,103.5 C 57.1667,103.5 54.8333,103.5 52.5,103.5C 85.6319,69.868 118.965,36.368 152.5,3C 154.783,0.809979 157.449,0.143313 160.5,1C 126.993,35.3401 93.3264,69.5068 59.5,103.5 Z"/></g>
<g><path style="opacity:0.042" fill="#43443f" d="M 79.5,103.5 C 77.1667,103.5 74.8333,103.5 72.5,103.5C 105.632,69.868 138.965,36.368 172.5,3C 174.783,0.809979 177.449,0.143313 180.5,1C 146.993,35.3401 113.326,69.5068 79.5,103.5 Z"/></g>
<g><path style="opacity:0.038" fill="#43433f" d="M 167.5,35.5 C 164.461,36.01 161.461,36.6766 158.5,37.5C 170.328,24.8392 182.661,12.6725 195.5,1C 197.167,0.333333 198.833,0.333333 200.5,1C 189.661,12.6721 178.661,24.1721 167.5,35.5 Z"/></g>
<g><path style="opacity:0.038" fill="#43443f" d="M 187.5,35.5 C 185.167,35.5 182.833,35.5 180.5,35.5C 190.965,24.5349 201.631,13.7016 212.5,3C 214.783,0.809979 217.449,0.143313 220.5,1C 209.661,12.6721 198.661,24.1721 187.5,35.5 Z"/></g>
<g><path style="opacity:0.038" fill="#43443f" d="M 207.5,35.5 C 205.167,35.5 202.833,35.5 200.5,35.5C 210.965,24.5349 221.631,13.7016 232.5,3C 234.783,0.809979 237.449,0.143313 240.5,1C 229.661,12.6721 218.661,24.1721 207.5,35.5 Z"/></g>
<g><path style="opacity:0.038" fill="#43443f" d="M 227.5,35.5 C 225.167,35.5 222.833,35.5 220.5,35.5C 230.965,24.5349 241.631,13.7016 252.5,3C 254.783,0.809979 257.449,0.143313 260.5,1C 249.661,12.6721 238.661,24.1721 227.5,35.5 Z"/></g>
<g><path style="opacity:0.038" fill="#43443f" d="M 247.5,35.5 C 245.167,35.5 242.833,35.5 240.5,35.5C 250.965,24.5349 261.631,13.7016 272.5,3C 274.783,0.809979 277.449,0.143313 280.5,1C 269.661,12.6721 258.661,24.1721 247.5,35.5 Z"/></g>
<g><path style="opacity:0.038" fill="#43443f" d="M 267.5,35.5 C 265.167,35.5 262.833,35.5 260.5,35.5C 270.965,24.5349 281.631,13.7016 292.5,3C 294.783,0.809979 297.449,0.143313 300.5,1C 289.661,12.6721 278.661,24.1721 267.5,35.5 Z"/></g>
<g><path style="opacity:0.038" fill="#43443f" d="M 287.5,35.5 C 285.167,35.5 282.833,35.5 280.5,35.5C 290.965,24.5349 301.631,13.7016 312.5,3C 314.783,0.809979 317.449,0.143313 320.5,1C 309.661,12.6721 298.661,24.1721 287.5,35.5 Z"/></g>
<g><path style="opacity:0.038" fill="#43443f" d="M 307.5,35.5 C 305.167,35.5 302.833,35.5 300.5,35.5C 310.965,24.5349 321.631,13.7016 332.5,3C 334.783,0.809979 337.449,0.143313 340.5,1C 329.661,12.6721 318.661,24.1721 307.5,35.5 Z"/></g>
<g><path style="opacity:0.038" fill="#43443f" d="M 327.5,35.5 C 325.167,35.5 322.833,35.5 320.5,35.5C 330.965,24.5349 341.631,13.7016 352.5,3C 354.783,0.809979 357.449,0.143313 360.5,1C 349.661,12.6721 338.661,24.1721 327.5,35.5 Z"/></g>
<g><path style="opacity:0.038" fill="#43443f" d="M 347.5,35.5 C 345.167,35.5 342.833,35.5 340.5,35.5C 350.965,24.5349 361.631,13.7016 372.5,3C 374.783,0.809979 377.449,0.143313 380.5,1C 369.661,12.6721 358.661,24.1721 347.5,35.5 Z"/></g>
<g><path style="opacity:0.039" fill="#43433f" d="M 360.5,41.5 C 358.632,40.7368 356.965,39.7368 355.5,38.5C 368.247,27.2561 380.58,15.4227 392.5,3C 394.783,0.809979 397.449,0.143313 400.5,1C 387.661,15.0059 374.327,28.5059 360.5,41.5 Z"/></g>
<g><path style="opacity:0.04" fill="#43443f" d="M 370.5,52.5 C 369.11,51.1007 368.11,49.4341 367.5,47.5C 383.327,31.8396 399.327,16.3396 415.5,1C 417.167,0.333333 418.833,0.333333 420.5,1C 403.994,18.3394 387.327,35.5061 370.5,52.5 Z"/></g>
<g><path style="opacity:0.041" fill="#43443f" d="M 374.5,67.5 C 374.5,65.5 374.5,63.5 374.5,61.5C 394.327,40.8398 414.66,20.6731 435.5,1C 437.167,0.333333 438.833,0.333333 440.5,1C 418.993,23.6732 396.993,45.8398 374.5,67.5 Z"/></g>
<g><path style="opacity:0.041" fill="#43443f" d="M 374.5,87.5 C 374.5,85.1667 374.5,82.8333 374.5,80.5C 401.327,53.8401 428.327,27.3401 455.5,1C 457.167,0.333333 458.833,0.333333 460.5,1C 432.327,30.3401 403.66,59.1734 374.5,87.5 Z"/></g>
<g><path style="opacity:0.041" fill="#43433f" d="M 511.5,5.5 C 511.5,7.16667 511.5,8.83333 511.5,10.5C 481.395,41.105 451.062,71.605 420.5,102C 424.833,102.667 429.167,102.667 433.5,102C 459.063,75.9354 485.063,50.4354 511.5,25.5C 511.5,27.1667 511.5,28.8333 511.5,30.5C 488.062,54.4384 464.395,78.2717 440.5,102C 444.833,102.667 449.167,102.667 453.5,102C 472.397,82.601 491.731,63.7677 511.5,45.5C 511.5,47.1667 511.5,48.8333 511.5,50.5C 494.729,67.7717 477.729,84.9383 460.5,102C 464.833,102.667 469.167,102.667 473.5,102C 485.732,89.2655 498.399,77.0989 511.5,65.5C 511.5,67.1667 511.5,68.8333 511.5,70.5C 500.861,81.4734 490.194,92.4734 479.5,103.5C 444.5,103.5 409.5,103.5 374.5,103.5C 374.5,102.5 374.5,101.5 374.5,100.5C 407.299,68.2015 439.965,35.7015 472.5,3C 474.783,0.809979 477.449,0.143313 480.5,1C 447.528,34.9723 414.195,68.6389 380.5,102C 384.833,102.667 389.167,102.667 393.5,102C 426.5,69 459.5,36 492.5,3C 494.783,0.809979 497.449,0.143313 500.5,1C 467.528,34.9723 434.195,68.6389 400.5,102C 404.833,102.667 409.167,102.667 413.5,102C 445.73,69.2694 478.396,37.1027 511.5,5.5 Z"/></g>
<g><path style="opacity:0.043" fill="#43433f" d="M 139.5,56.5 C 138.677,59.4606 138.01,62.4606 137.5,65.5C 124.5,77.8333 111.833,90.5 99.5,103.5C 97.1667,103.5 94.8333,103.5 92.5,103.5C 107.833,87.5 123.5,71.8333 139.5,56.5 Z"/></g>
<g><path style="opacity:0.043" fill="#43443f" d="M 194.5,60.5 C 196.833,60.5 199.167,60.5 201.5,60.5C 188.833,73.8333 175.833,86.8333 162.5,99.5C 162.5,97.1667 162.5,94.8333 162.5,92.5C 173.5,82.1667 184.167,71.5 194.5,60.5 Z"/></g>
<g><path style="opacity:0.043" fill="#43443f" d="M 214.5,60.5 C 216.833,60.5 219.167,60.5 221.5,60.5C 207.5,74.8333 193.5,89.1667 179.5,103.5C 177.167,103.5 174.833,103.5 172.5,103.5C 186.5,89.1667 200.5,74.8333 214.5,60.5 Z"/></g>
<g><path style="opacity:0.043" fill="#43443f" d="M 234.5,60.5 C 236.833,60.5 239.167,60.5 241.5,60.5C 227.5,74.8333 213.5,89.1667 199.5,103.5C 197.167,103.5 194.833,103.5 192.5,103.5C 206.5,89.1667 220.5,74.8333 234.5,60.5 Z"/></g>
<g><path style="opacity:0.043" fill="#43443f" d="M 254.5,60.5 C 256.833,60.5 259.167,60.5 261.5,60.5C 247.5,74.8333 233.5,89.1667 219.5,103.5C 217.167,103.5 214.833,103.5 212.5,103.5C 226.5,89.1667 240.5,74.8333 254.5,60.5 Z"/></g>
<g><path style="opacity:0.043" fill="#43443f" d="M 274.5,60.5 C 276.833,60.5 279.167,60.5 281.5,60.5C 267.5,74.8333 253.5,89.1667 239.5,103.5C 237.167,103.5 234.833,103.5 232.5,103.5C 246.5,89.1667 260.5,74.8333 274.5,60.5 Z"/></g>
<g><path style="opacity:0.043" fill="#43443f" d="M 294.5,60.5 C 296.833,60.5 299.167,60.5 301.5,60.5C 287.5,74.8333 273.5,89.1667 259.5,103.5C 257.167,103.5 254.833,103.5 252.5,103.5C 266.5,89.1667 280.5,74.8333 294.5,60.5 Z"/></g>
<g><path style="opacity:0.043" fill="#43443f" d="M 314.5,60.5 C 316.833,60.5 319.167,60.5 321.5,60.5C 307.5,74.8333 293.5,89.1667 279.5,103.5C 277.167,103.5 274.833,103.5 272.5,103.5C 286.5,89.1667 300.5,74.8333 314.5,60.5 Z"/></g>
<g><path style="opacity:0.043" fill="#434340" d="M 334.5,60.5 C 336.735,60.2053 338.735,60.5386 340.5,61.5C 326.833,75.5 313.167,89.5 299.5,103.5C 298.833,103.5 298.167,103.5 297.5,103.5C 295.833,103.5 294.167,103.5 292.5,103.5C 306.5,89.1667 320.5,74.8333 334.5,60.5 Z"/></g>
<g><path style="opacity:0.997" fill="#2b2b28" d="M 167.5,35.5 C 171.833,35.5 176.167,35.5 180.5,35.5C 182.833,35.5 185.167,35.5 187.5,35.5C 191.833,35.5 196.167,35.5 200.5,35.5C 202.833,35.5 205.167,35.5 207.5,35.5C 211.833,35.5 216.167,35.5 220.5,35.5C 222.833,35.5 225.167,35.5 227.5,35.5C 231.833,35.5 236.167,35.5 240.5,35.5C 242.833,35.5 245.167,35.5 247.5,35.5C 251.833,35.5 256.167,35.5 260.5,35.5C 262.833,35.5 265.167,35.5 267.5,35.5C 271.833,35.5 276.167,35.5 280.5,35.5C 282.833,35.5 285.167,35.5 287.5,35.5C 291.833,35.5 296.167,35.5 300.5,35.5C 302.833,35.5 305.167,35.5 307.5,35.5C 311.833,35.5 316.167,35.5 320.5,35.5C 322.833,35.5 325.167,35.5 327.5,35.5C 331.833,35.5 336.167,35.5 340.5,35.5C 342.833,35.5 345.167,35.5 347.5,35.5C 350.167,36.5 352.833,37.5 355.5,38.5C 356.965,39.7368 358.632,40.7368 360.5,41.5C 362.808,43.4707 365.142,45.4707 367.5,47.5C 368.11,49.4341 369.11,51.1007 370.5,52.5C 371.85,55.5721 373.183,58.5721 374.5,61.5C 374.5,63.5 374.5,65.5 374.5,67.5C 374.5,71.8333 374.5,76.1667 374.5,80.5C 374.5,82.8333 374.5,85.1667 374.5,87.5C 374.5,91.8333 374.5,96.1667 374.5,100.5C 374.5,101.5 374.5,102.5 374.5,103.5C 409.5,103.5 444.5,103.5 479.5,103.5C 482.167,104.5 484.833,105.5 487.5,106.5C 488.899,107.89 490.566,108.89 492.5,109.5C 494.5,111.833 496.5,114.167 498.5,116.5C 499.512,117.872 500.512,119.205 501.5,120.5C 502.503,123.85 503.503,127.183 504.5,130.5C 504.5,132.833 504.5,135.167 504.5,137.5C 504.5,141.833 504.5,146.167 504.5,150.5C 504.5,152.833 504.5,155.167 504.5,157.5C 504.5,161.833 504.5,166.167 504.5,170.5C 504.5,172.833 504.5,175.167 504.5,177.5C 504.5,181.833 504.5,186.167 504.5,190.5C 504.5,192.833 504.5,195.167 504.5,197.5C 503.578,199.816 501.911,201.483 499.5,202.5C 494.184,205.472 488.85,208.472 483.5,211.5C 482.833,211.5 482.5,211.833 482.5,212.5C 473.653,216.45 464.986,220.784 456.5,225.5C 452.213,226.648 448.213,228.315 444.5,230.5C 437.162,233.501 429.828,236.501 422.5,239.5C 418.721,240.558 415.054,241.891 411.5,243.5C 410.833,243.5 410.5,243.833 410.5,244.5C 403.69,246.437 397.023,248.77 390.5,251.5C 387.037,252.099 383.704,253.099 380.5,254.5C 379.833,254.5 379.5,254.833 379.5,255.5C 373.029,257.102 366.696,259.102 360.5,261.5C 357.032,262.101 353.699,263.101 350.5,264.5C 344.103,266.348 337.77,268.348 331.5,270.5C 329.194,270.993 326.861,271.326 324.5,271.5C 324.5,267.167 324.5,262.833 324.5,258.5C 324.5,256.167 324.5,253.833 324.5,251.5C 324.917,247.183 324.25,243.183 322.5,239.5C 322.5,237.5 321.5,236.5 319.5,236.5C 318.653,235.034 317.32,234.2 315.5,234C 313.19,233.503 310.857,233.337 308.5,233.5C 306.167,233.5 303.833,233.5 301.5,233.5C 297.167,233.5 292.833,233.5 288.5,233.5C 286.167,233.5 283.833,233.5 281.5,233.5C 277.167,233.5 272.833,233.5 268.5,233.5C 266.167,233.5 263.833,233.5 261.5,233.5C 257.167,233.5 252.833,233.5 248.5,233.5C 246.167,233.5 243.833,233.5 241.5,233.5C 237.167,233.5 232.833,233.5 228.5,233.5C 226.167,233.5 223.833,233.5 221.5,233.5C 217.167,233.5 212.833,233.5 208.5,233.5C 206.167,233.5 203.833,233.5 201.5,233.5C 200.833,233.5 200.5,233.833 200.5,234.5C 195.869,235.798 192.869,238.798 191.5,243.5C 191.5,245.833 191.5,248.167 191.5,250.5C 191.5,254.833 191.5,259.167 191.5,263.5C 191.5,265.833 191.5,268.167 191.5,270.5C 191.672,271.492 191.338,272.158 190.5,272.5C 188.786,271.262 186.786,270.595 184.5,270.5C 181.183,269.503 177.85,268.503 174.5,267.5C 172.958,266.699 171.292,266.366 169.5,266.5C 166.45,264.899 163.116,263.899 159.5,263.5C 157.786,262.262 155.786,261.595 153.5,261.5C 150.381,260.13 147.048,259.13 143.5,258.5C 143.5,258.167 143.5,257.833 143.5,257.5C 195.167,206.5 246.5,155.167 297.5,103.5C 298.167,103.5 298.833,103.5 299.5,103.5C 303.833,103.5 308.167,103.5 312.5,103.5C 314.833,103.5 317.167,103.5 319.5,103.5C 323.833,103.5 328.167,103.5 332.5,103.5C 334.833,103.5 337.167,103.5 339.5,103.5C 342.833,103.5 346.167,103.5 349.5,103.5C 349.5,100.167 349.5,96.8333 349.5,93.5C 349.5,91.1667 349.5,88.8333 349.5,86.5C 349.5,82.1667 349.5,77.8333 349.5,73.5C 349.483,71.4352 349.15,69.4352 348.5,67.5C 347.273,63.6086 344.606,61.6086 340.5,61.5C 338.735,60.5386 336.735,60.2053 334.5,60.5C 330.167,60.5 325.833,60.5 321.5,60.5C 319.167,60.5 316.833,60.5 314.5,60.5C 310.167,60.5 305.833,60.5 301.5,60.5C 299.167,60.5 296.833,60.5 294.5,60.5C 290.167,60.5 285.833,60.5 281.5,60.5C 279.167,60.5 276.833,60.5 274.5,60.5C 270.167,60.5 265.833,60.5 261.5,60.5C 259.167,60.5 256.833,60.5 254.5,60.5C 250.167,60.5 245.833,60.5 241.5,60.5C 239.167,60.5 236.833,60.5 234.5,60.5C 230.167,60.5 225.833,60.5 221.5,60.5C 219.167,60.5 216.833,60.5 214.5,60.5C 210.167,60.5 205.833,60.5 201.5,60.5C 199.167,60.5 196.833,60.5 194.5,60.5C 190.167,60.5 185.833,60.5 181.5,60.5C 179.167,60.5 176.833,60.5 174.5,60.5C 166.833,60.8333 162.833,64.8333 162.5,72.5C 162.5,73.1667 162.5,73.8333 162.5,74.5C 154.167,82.5 145.833,90.5 137.5,98.5C 137.5,94.1667 137.5,89.8333 137.5,85.5C 137.5,83.1667 137.5,80.8333 137.5,78.5C 137.5,74.1667 137.5,69.8333 137.5,65.5C 138.01,62.4606 138.677,59.4606 139.5,56.5C 143.5,47.8333 149.833,41.5 158.5,37.5C 161.461,36.6766 164.461,36.01 167.5,35.5 Z M 181.5,60.5 C 185.833,60.5 190.167,60.5 194.5,60.5C 184.167,71.5 173.5,82.1667 162.5,92.5C 162.5,88.1667 162.5,83.8333 162.5,79.5C 169.167,73.5 175.5,67.1667 181.5,60.5 Z M 174.5,60.5 C 170.833,64.8333 166.833,68.8333 162.5,72.5C 162.833,64.8333 166.833,60.8333 174.5,60.5 Z M 208.5,233.5 C 212.833,233.5 217.167,233.5 221.5,233.5C 211.833,243.833 201.833,253.833 191.5,263.5C 191.5,259.167 191.5,254.833 191.5,250.5C 197.5,245.167 203.167,239.5 208.5,233.5 Z M 228.5,233.5 C 232.833,233.5 237.167,233.5 241.5,233.5C 236.833,238.5 232.167,243.5 227.5,248.5C 222.77,248.283 218.103,248.617 213.5,249.5C 218.5,244.167 223.5,238.833 228.5,233.5 Z M 248.5,233.5 C 252.833,233.5 257.167,233.5 261.5,233.5C 256.833,238.5 252.167,243.5 247.5,248.5C 243.167,248.5 238.833,248.5 234.5,248.5C 239.167,243.5 243.833,238.5 248.5,233.5 Z M 268.5,233.5 C 272.833,233.5 277.167,233.5 281.5,233.5C 276.833,238.5 272.167,243.5 267.5,248.5C 263.167,248.5 258.833,248.5 254.5,248.5C 259.167,243.5 263.833,238.5 268.5,233.5 Z M 288.5,233.5 C 292.833,233.5 297.167,233.5 301.5,233.5C 296.833,238.5 292.167,243.5 287.5,248.5C 283.167,248.5 278.833,248.5 274.5,248.5C 279.167,243.5 283.833,238.5 288.5,233.5 Z M 308.5,233.5 C 310.857,233.337 313.19,233.503 315.5,234C 317.32,234.2 318.653,235.034 319.5,236.5C 314.167,241.167 309.167,246.167 304.5,251.5C 301.671,249.022 298.338,248.022 294.5,248.5C 299.167,243.5 303.833,238.5 308.5,233.5 Z M 200.5,234.5 C 197.833,237.833 194.833,240.833 191.5,243.5C 192.869,238.798 195.869,235.798 200.5,234.5 Z M 322.5,239.5 C 324.25,243.183 324.917,247.183 324.5,251.5C 318.833,256.833 313.167,262.167 307.5,267.5C 307.763,263.4 307.43,259.4 306.5,255.5C 312.167,250.5 317.5,245.167 322.5,239.5 Z"/></g>
<g><path style="opacity:0.043" fill="#43443f" d="M 174.5,60.5 C 176.833,60.5 179.167,60.5 181.5,60.5C 175.5,67.1667 169.167,73.5 162.5,79.5C 162.5,77.8333 162.5,76.1667 162.5,74.5C 162.5,73.8333 162.5,73.1667 162.5,72.5C 166.833,68.8333 170.833,64.8333 174.5,60.5 Z"/></g>
<g><path style="opacity:0.043" fill="#43433f" d="M 348.5,67.5 C 349.15,69.4352 349.483,71.4352 349.5,73.5C 339.167,83.1667 329.167,93.1667 319.5,103.5C 317.167,103.5 314.833,103.5 312.5,103.5C 324.167,91.1667 336.167,79.1667 348.5,67.5 Z"/></g>
<g><path style="opacity:0.043" fill="#43443f" d="M 137.5,78.5 C 137.5,80.8333 137.5,83.1667 137.5,85.5C 131.167,91.1667 125.167,97.1667 119.5,103.5C 117.167,103.5 114.833,103.5 112.5,103.5C 120.5,94.8333 128.833,86.5 137.5,78.5 Z"/></g>
<g><path style="opacity:0.035" fill="#43433f" d="M 511.5,85.5 C 511.5,87.1667 511.5,88.8333 511.5,90.5C 505.527,97.1396 499.194,103.473 492.5,109.5C 490.566,108.89 488.899,107.89 487.5,106.5C 495.48,99.5225 503.48,92.5225 511.5,85.5 Z"/></g>
<g><path style="opacity:0.043" fill="#43443f" d="M 349.5,86.5 C 349.5,88.8333 349.5,91.1667 349.5,93.5C 345.833,96.5 342.5,99.8333 339.5,103.5C 337.167,103.5 334.833,103.5 332.5,103.5C 337.833,97.5 343.5,91.8333 349.5,86.5 Z"/></g>
<g><path style="opacity:0.998" fill="#2b2b28" d="M 162.5,74.5 C 162.5,76.1667 162.5,77.8333 162.5,79.5C 162.5,83.8333 162.5,88.1667 162.5,92.5C 162.5,94.8333 162.5,97.1667 162.5,99.5C 162.5,100.833 162.5,102.167 162.5,103.5C 165.833,103.5 169.167,103.5 172.5,103.5C 174.833,103.5 177.167,103.5 179.5,103.5C 183.833,103.5 188.167,103.5 192.5,103.5C 194.833,103.5 197.167,103.5 199.5,103.5C 203.833,103.5 208.167,103.5 212.5,103.5C 214.833,103.5 217.167,103.5 219.5,103.5C 223.833,103.5 228.167,103.5 232.5,103.5C 234.833,103.5 237.167,103.5 239.5,103.5C 243.833,103.5 248.167,103.5 252.5,103.5C 254.833,103.5 257.167,103.5 259.5,103.5C 263.833,103.5 268.167,103.5 272.5,103.5C 274.833,103.5 277.167,103.5 279.5,103.5C 283.833,103.5 288.167,103.5 292.5,103.5C 294.167,103.5 295.833,103.5 297.5,103.5C 246.5,155.167 195.167,206.5 143.5,257.5C 141.784,257.371 140.117,257.038 138.5,256.5C 135.301,255.101 131.968,254.101 128.5,253.5C 127.07,252.463 125.403,251.796 123.5,251.5C 120.301,250.101 116.968,249.101 113.5,248.5C 112.22,247.069 110.553,246.402 108.5,246.5C 106.064,245.129 103.397,244.129 100.5,243.5C 98.7857,242.262 96.7857,241.595 94.5,241.5C 91.46,239.654 88.1267,238.321 84.5,237.5C 83.2196,236.069 81.5529,235.402 79.5,235.5C 76.682,233.928 73.682,232.594 70.5,231.5C 68.9505,230.559 67.2838,229.893 65.5,229.5C 62.5,228.167 59.5,226.833 56.5,225.5C 54.4832,224.471 52.4832,223.471 50.5,222.5C 47.8333,221.5 45.1667,220.5 42.5,219.5C 41.4863,218.326 40.153,217.66 38.5,217.5C 35.6963,215.595 32.6963,213.929 29.5,212.5C 27.9505,211.559 26.2838,210.893 24.5,210.5C 21.8695,208.847 19.2028,207.181 16.5,205.5C 15.4863,204.326 14.153,203.66 12.5,203.5C 9.53597,202.192 7.20263,200.192 5.5,197.5C 5.5,195.167 5.5,192.833 5.5,190.5C 5.5,186.167 5.5,181.833 5.5,177.5C 5.5,175.167 5.5,172.833 5.5,170.5C 5.5,166.167 5.5,161.833 5.5,157.5C 5.5,155.167 5.5,152.833 5.5,150.5C 5.5,146.167 5.5,141.833 5.5,137.5C 5.5,135.167 5.5,132.833 5.5,130.5C 8.86961,115.797 17.8696,106.797 32.5,103.5C 34.8333,103.5 37.1667,103.5 39.5,103.5C 43.8333,103.5 48.1667,103.5 52.5,103.5C 54.8333,103.5 57.1667,103.5 59.5,103.5C 63.8333,103.5 68.1667,103.5 72.5,103.5C 74.8333,103.5 77.1667,103.5 79.5,103.5C 83.8333,103.5 88.1667,103.5 92.5,103.5C 94.8333,103.5 97.1667,103.5 99.5,103.5C 103.833,103.5 108.167,103.5 112.5,103.5C 114.833,103.5 117.167,103.5 119.5,103.5C 123.846,103.666 128.179,103.499 132.5,103C 134.037,101.293 135.704,99.7927 137.5,98.5C 145.833,90.5 154.167,82.5 162.5,74.5 Z"/></g>
<g><path style="opacity:0.028" fill="#44443f" d="M 511.5,105.5 C 511.5,107.167 511.5,108.833 511.5,110.5C 508.527,114.14 505.194,117.473 501.5,120.5C 500.512,119.205 499.512,117.872 498.5,116.5C 502.54,112.458 506.873,108.791 511.5,105.5 Z"/></g>
<g><path style="opacity:0.019" fill="#43443f" d="M 511.5,125.5 C 511.5,127.167 511.5,128.833 511.5,130.5C 509.527,133.139 507.194,135.473 504.5,137.5C 504.5,135.167 504.5,132.833 504.5,130.5C 506.555,128.445 508.888,126.779 511.5,125.5 Z"/></g>
<g><path style="opacity:0.015" fill="#43443f" d="M 5.5,130.5 C 5.5,132.833 5.5,135.167 5.5,137.5C 4.11467,138.614 2.61467,139.614 1,140.5C 0.397167,136.256 1.89717,132.923 5.5,130.5 Z"/></g>
<g><path style="opacity:0.019" fill="#43443f" d="M 511.5,145.5 C 511.5,147.167 511.5,148.833 511.5,150.5C 509.527,153.139 507.194,155.473 504.5,157.5C 504.5,155.167 504.5,152.833 504.5,150.5C 506.555,148.445 508.888,146.779 511.5,145.5 Z"/></g>
<g><path style="opacity:0.015" fill="#43443f" d="M 5.5,150.5 C 5.5,152.833 5.5,155.167 5.5,157.5C 4.11467,158.614 2.61467,159.614 1,160.5C 0.397167,156.256 1.89717,152.923 5.5,150.5 Z"/></g>
<g><path style="opacity:0.019" fill="#43443f" d="M 511.5,165.5 C 511.5,167.167 511.5,168.833 511.5,170.5C 509.527,173.139 507.194,175.473 504.5,177.5C 504.5,175.167 504.5,172.833 504.5,170.5C 506.555,168.445 508.888,166.779 511.5,165.5 Z"/></g>
<g><path style="opacity:0.015" fill="#43443f" d="M 5.5,170.5 C 5.5,172.833 5.5,175.167 5.5,177.5C 4.11467,178.614 2.61467,179.614 1,180.5C 0.397167,176.256 1.89717,172.923 5.5,170.5 Z"/></g>
<g><path style="opacity:0.019" fill="#43443f" d="M 511.5,185.5 C 511.5,187.167 511.5,188.833 511.5,190.5C 509.527,193.139 507.194,195.473 504.5,197.5C 504.5,195.167 504.5,192.833 504.5,190.5C 506.555,188.445 508.888,186.779 511.5,185.5 Z"/></g>
<g><path style="opacity:0.015" fill="#43443f" d="M 5.5,190.5 C 5.5,192.833 5.5,195.167 5.5,197.5C 4.11467,198.614 2.61467,199.614 1,200.5C 0.397167,196.256 1.89717,192.923 5.5,190.5 Z"/></g>
<g><path style="opacity:0.031" fill="#43433f" d="M 12.5,203.5 C 14.153,203.66 15.4863,204.326 16.5,205.5C 11.8365,210.996 6.66988,215.996 1,220.5C 0.143313,217.449 0.809979,214.783 3,212.5C 6.03594,209.296 9.20261,206.296 12.5,203.5 Z"/></g>
<g><path style="opacity:0.043" fill="#43433f" d="M 499.5,202.5 C 486.833,215.5 474.167,228.5 461.5,241.5C 460.833,241.5 460.5,241.833 460.5,242.5C 456.667,244.556 452.667,246.222 448.5,247.5C 459.833,235.833 471.167,224.167 482.5,212.5C 483.167,212.5 483.5,212.167 483.5,211.5C 488.85,208.472 494.184,205.472 499.5,202.5 Z"/></g>
<g><path style="opacity:0.035" fill="#43433f" d="M 511.5,205.5 C 511.5,207.167 511.5,208.833 511.5,210.5C 508.529,213.808 505.529,217.141 502.5,220.5C 501.833,220.5 501.5,220.833 501.5,221.5C 496.698,224.403 491.698,227.07 486.5,229.5C 494.2,220.799 502.533,212.799 511.5,205.5 Z"/></g>
<g><path style="opacity:0.043" fill="#43433f" d="M 24.5,210.5 C 26.2838,210.893 27.9505,211.559 29.5,212.5C 25.5,217.167 21.1667,221.5 16.5,225.5C 14.847,225.34 13.5137,224.674 12.5,223.5C 16.5,219.167 20.5,214.833 24.5,210.5 Z"/></g>
<g><path style="opacity:0.043" fill="#43443f" d="M 38.5,217.5 C 40.153,217.66 41.4863,218.326 42.5,219.5C 38.5,223.833 34.5,228.167 30.5,232.5C 28.7162,232.107 27.0495,231.441 25.5,230.5C 29.5,225.833 33.8333,221.5 38.5,217.5 Z"/></g>
<g><path style="opacity:0.043" fill="#43433f" d="M 50.5,222.5 C 52.4832,223.471 54.4832,224.471 56.5,225.5C 52.5,230.167 48.1667,234.5 43.5,238.5C 41.847,238.34 40.5137,237.674 39.5,236.5C 43.2964,232.202 47.2964,228.036 51.5,224C 50.944,223.617 50.6107,223.117 50.5,222.5 Z"/></g>
<g><path style="opacity:0.043" fill="#44443f" d="M 456.5,225.5 C 446.5,235.833 436.5,246.167 426.5,256.5C 422.991,258.226 419.325,259.559 415.5,260.5C 425.167,250.5 434.833,240.5 444.5,230.5C 448.213,228.315 452.213,226.648 456.5,225.5 Z"/></g>
<g><path style="opacity:0.019" fill="#43443f" d="M 511.5,225.5 C 511.5,227.167 511.5,228.833 511.5,230.5C 509.527,233.139 507.194,235.473 504.5,237.5C 504.5,235.167 504.5,232.833 504.5,230.5C 506.555,228.445 508.888,226.779 511.5,225.5 Z"/></g>
<g><path style="opacity:0.043" fill="#44443f" d="M 65.5,229.5 C 67.2838,229.893 68.9505,230.559 70.5,231.5C 66.1667,236.167 61.8333,240.833 57.5,245.5C 55.6316,244.737 53.9649,243.737 52.5,242.5C 57.1667,238.5 61.5,234.167 65.5,229.5 Z"/></g>
<g><path style="opacity:0.015" fill="#43443f" d="M 5.5,230.5 C 5.5,232.833 5.5,235.167 5.5,237.5C 4.11467,238.614 2.61467,239.614 1,240.5C 0.397167,236.256 1.89717,232.923 5.5,230.5 Z"/></g>
<g><path style="opacity:0.996" fill="#2b2b28" d="M 502.5,220.5 C 504.402,223.337 505.069,226.671 504.5,230.5C 504.5,232.833 504.5,235.167 504.5,237.5C 504.5,241.833 504.5,246.167 504.5,250.5C 504.5,252.833 504.5,255.167 504.5,257.5C 504.5,261.833 504.5,266.167 504.5,270.5C 504.5,272.833 504.5,275.167 504.5,277.5C 443.5,337.833 382.833,398.5 322.5,459.5C 320.167,459.5 317.833,459.5 315.5,459.5C 311.167,459.5 306.833,459.5 302.5,459.5C 300.167,459.5 297.833,459.5 295.5,459.5C 291.167,459.5 286.833,459.5 282.5,459.5C 280.167,459.5 277.833,459.5 275.5,459.5C 271.167,459.5 266.833,459.5 262.5,459.5C 260.167,459.5 257.833,459.5 255.5,459.5C 251.167,459.5 246.833,459.5 242.5,459.5C 240.167,459.5 237.833,459.5 235.5,459.5C 231.167,459.5 226.833,459.5 222.5,459.5C 220.167,459.5 217.833,459.5 215.5,459.5C 211.167,459.5 206.833,459.5 202.5,459.5C 200.167,459.5 197.833,459.5 195.5,459.5C 191.167,459.5 186.833,459.5 182.5,459.5C 180.167,459.5 177.833,459.5 175.5,459.5C 171.167,459.5 166.833,459.5 162.5,459.5C 205.167,416.5 247.833,373.5 290.5,330.5C 291.167,330.5 291.833,330.5 292.5,330.5C 296.833,330.5 301.167,330.5 305.5,330.5C 307.833,330.5 310.167,330.5 312.5,330.5C 319.5,329.5 323.5,325.5 324.5,318.5C 324.5,316.167 324.5,313.833 324.5,311.5C 324.5,307.167 324.5,302.833 324.5,298.5C 324.5,296.167 324.5,293.833 324.5,291.5C 324.5,290.5 324.5,289.5 324.5,288.5C 325.5,288.5 326.5,288.5 327.5,288.5C 330.85,287.497 334.183,286.497 337.5,285.5C 343.5,283.833 349.5,282.167 355.5,280.5C 358.941,279.807 362.275,278.807 365.5,277.5C 371.849,275.494 378.182,273.494 384.5,271.5C 387.833,270.5 391.167,269.5 394.5,268.5C 395.167,268.5 395.5,268.167 395.5,267.5C 402.31,265.563 408.977,263.23 415.5,260.5C 419.325,259.559 422.991,258.226 426.5,256.5C 433.999,253.89 441.333,250.89 448.5,247.5C 452.667,246.222 456.667,244.556 460.5,242.5C 461.167,242.5 461.5,242.167 461.5,241.5C 470.234,238.299 478.567,234.299 486.5,229.5C 491.698,227.07 496.698,224.403 501.5,221.5C 502.167,221.5 502.5,221.167 502.5,220.5 Z"/></g>
<g><path style="opacity:0.043" fill="#43443f" d="M 201.5,233.5 C 203.833,233.5 206.167,233.5 208.5,233.5C 203.167,239.5 197.5,245.167 191.5,250.5C 191.5,248.167 191.5,245.833 191.5,243.5C 194.833,240.833 197.833,237.833 200.5,234.5C 201.167,234.5 201.5,234.167 201.5,233.5 Z"/></g>
<g><path style="opacity:0.043" fill="#43443f" d="M 221.5,233.5 C 223.833,233.5 226.167,233.5 228.5,233.5C 223.5,238.833 218.5,244.167 213.5,249.5C 212.833,249.5 212.5,249.833 212.5,250.5C 211.833,250.5 211.5,250.833 211.5,251.5C 210.833,251.5 210.5,251.833 210.5,252.5C 209.833,252.5 209.5,252.833 209.5,253.5C 203.5,259.167 197.5,264.833 191.5,270.5C 191.5,268.167 191.5,265.833 191.5,263.5C 201.833,253.833 211.833,243.833 221.5,233.5 Z"/></g>
<g><path style="opacity:0.043" fill="#43443f" d="M 241.5,233.5 C 243.833,233.5 246.167,233.5 248.5,233.5C 243.833,238.5 239.167,243.5 234.5,248.5C 232.167,248.5 229.833,248.5 227.5,248.5C 232.167,243.5 236.833,238.5 241.5,233.5 Z"/></g>
<g><path style="opacity:0.043" fill="#43443f" d="M 261.5,233.5 C 263.833,233.5 266.167,233.5 268.5,233.5C 263.833,238.5 259.167,243.5 254.5,248.5C 252.167,248.5 249.833,248.5 247.5,248.5C 252.167,243.5 256.833,238.5 261.5,233.5 Z"/></g>
<g><path style="opacity:0.043" fill="#43443f" d="M 281.5,233.5 C 283.833,233.5 286.167,233.5 288.5,233.5C 283.833,238.5 279.167,243.5 274.5,248.5C 272.167,248.5 269.833,248.5 267.5,248.5C 272.167,243.5 276.833,238.5 281.5,233.5 Z"/></g>
<g><path style="opacity:0.043" fill="#43443f" d="M 301.5,233.5 C 303.833,233.5 306.167,233.5 308.5,233.5C 303.833,238.5 299.167,243.5 294.5,248.5C 292.167,248.5 289.833,248.5 287.5,248.5C 292.167,243.5 296.833,238.5 301.5,233.5 Z"/></g>
<g><path style="opacity:0.043" fill="#43433f" d="M 79.5,235.5 C 81.5529,235.402 83.2196,236.069 84.5,237.5C 80.5,242.167 76.1667,246.5 71.5,250.5C 69.4471,250.598 67.7804,249.931 66.5,248.5C 71.1667,244.5 75.5,240.167 79.5,235.5 Z"/></g>
<g><path style="opacity:0.043" fill="#43433f" d="M 319.5,236.5 C 321.5,236.5 322.5,237.5 322.5,239.5C 317.5,245.167 312.167,250.5 306.5,255.5C 305.833,254.167 305.167,252.833 304.5,251.5C 309.167,246.167 314.167,241.167 319.5,236.5 Z"/></g>
<g><path style="opacity:0.043" fill="#43433f" d="M 422.5,239.5 C 413.5,248.833 404.5,258.167 395.5,267.5C 394.833,267.5 394.5,267.833 394.5,268.5C 391.167,269.5 387.833,270.5 384.5,271.5C 393.167,262.5 401.833,253.5 410.5,244.5C 411.167,244.5 411.5,244.167 411.5,243.5C 415.054,241.891 418.721,240.558 422.5,239.5 Z"/></g>
<g><path style="opacity:0.043" fill="#44443f" d="M 94.5,241.5 C 96.7857,241.595 98.7857,242.262 100.5,243.5C 95.226,247.105 90.5593,251.438 86.5,256.5C 84.4471,256.598 82.7804,255.931 81.5,254.5C 85.5,249.833 89.8333,245.5 94.5,241.5 Z"/></g>
<g><path style="opacity:0.019" fill="#43443f" d="M 511.5,245.5 C 511.5,247.167 511.5,248.833 511.5,250.5C 509.527,253.139 507.194,255.473 504.5,257.5C 504.5,255.167 504.5,252.833 504.5,250.5C 506.555,248.445 508.888,246.779 511.5,245.5 Z"/></g>
<g><path style="opacity:0.043" fill="#43433f" d="M 108.5,246.5 C 110.553,246.402 112.22,247.069 113.5,248.5C 109.5,253.167 105.167,257.5 100.5,261.5C 98.4471,261.598 96.7804,260.931 95.5,259.5C 100.167,255.5 104.5,251.167 108.5,246.5 Z"/></g>
<g><path style="opacity:0.987" fill="#2b2b28" d="M 227.5,248.5 C 229.833,248.5 232.167,248.5 234.5,248.5C 238.833,248.5 243.167,248.5 247.5,248.5C 249.833,248.5 252.167,248.5 254.5,248.5C 258.833,248.5 263.167,248.5 267.5,248.5C 269.833,248.5 272.167,248.5 274.5,248.5C 278.833,248.5 283.167,248.5 287.5,248.5C 289.833,248.5 292.167,248.5 294.5,248.5C 298.338,248.022 301.671,249.022 304.5,251.5C 305.167,252.833 305.833,254.167 306.5,255.5C 307.43,259.4 307.763,263.4 307.5,267.5C 307.5,269.833 307.5,272.167 307.5,274.5C 307.5,278.833 307.5,283.167 307.5,287.5C 307.5,289.833 307.5,292.167 307.5,294.5C 307.5,298.833 307.5,303.167 307.5,307.5C 306.833,307.5 306.5,307.833 306.5,308.5C 305.189,311.811 302.855,314.145 299.5,315.5C 295.167,315.5 290.833,315.5 286.5,315.5C 284.167,315.5 281.833,315.5 279.5,315.5C 275.167,315.5 270.833,315.5 266.5,315.5C 264.167,315.5 261.833,315.5 259.5,315.5C 255.167,315.5 250.833,315.5 246.5,315.5C 244.167,315.5 241.833,315.5 239.5,315.5C 235.167,315.5 230.833,315.5 226.5,315.5C 224.167,315.5 221.833,315.5 219.5,315.5C 215.871,315.518 212.871,314.184 210.5,311.5C 210.34,309.847 209.674,308.514 208.5,307.5C 208.5,303.167 208.5,298.833 208.5,294.5C 208.5,292.167 208.5,289.833 208.5,287.5C 208.5,283.167 208.5,278.833 208.5,274.5C 208.5,272.167 208.5,269.833 208.5,267.5C 208.353,262.786 208.686,258.119 209.5,253.5C 210.167,253.5 210.5,253.167 210.5,252.5C 211.167,252.5 211.5,252.167 211.5,251.5C 212.167,251.5 212.5,251.167 212.5,250.5C 213.167,250.5 213.5,250.167 213.5,249.5C 218.103,248.617 222.77,248.283 227.5,248.5 Z"/></g>
<g><path style="opacity:0.015" fill="#43443f" d="M 5.5,250.5 C 5.5,252.833 5.5,255.167 5.5,257.5C 4.11467,258.614 2.61467,259.614 1,260.5C 0.397167,256.256 1.89717,252.923 5.5,250.5 Z"/></g>
<g><path style="opacity:0.043" fill="#44443f" d="M 123.5,251.5 C 125.403,251.796 127.07,252.463 128.5,253.5C 124.5,258.167 120.167,262.5 115.5,266.5C 113.708,266.634 112.042,266.301 110.5,265.5C 114.833,260.833 119.167,256.167 123.5,251.5 Z"/></g>
<g><path style="opacity:0.043" fill="#43443f" d="M 324.5,251.5 C 324.5,253.833 324.5,256.167 324.5,258.5C 318.833,263.833 313.167,269.167 307.5,274.5C 307.5,272.167 307.5,269.833 307.5,267.5C 313.167,262.167 318.833,256.833 324.5,251.5 Z"/></g>
<g><path style="opacity:0.043" fill="#43433f" d="M 390.5,251.5 C 382.167,260.167 373.833,268.833 365.5,277.5C 362.275,278.807 358.941,279.807 355.5,280.5C 363.5,272.167 371.5,263.833 379.5,255.5C 380.167,255.5 380.5,255.167 380.5,254.5C 383.704,253.099 387.037,252.099 390.5,251.5 Z"/></g>
<g><path style="opacity:0.043" fill="#43433f" d="M 138.5,256.5 C 140.117,257.038 141.784,257.371 143.5,257.5C 143.5,257.833 143.5,258.167 143.5,258.5C 139.5,263.167 135.167,267.5 130.5,271.5C 128.708,271.634 127.042,271.301 125.5,270.5C 129.833,265.833 134.167,261.167 138.5,256.5 Z"/></g>
<g><path style="opacity:0.043" fill="#43433f" d="M 153.5,261.5 C 155.786,261.595 157.786,262.262 159.5,263.5C 154.833,267.5 150.5,271.833 146.5,276.5C 144.435,276.483 142.435,276.15 140.5,275.5C 144.833,270.833 149.167,266.167 153.5,261.5 Z"/></g>
<g><path style="opacity:0.043" fill="#43433f" d="M 360.5,261.5 C 352.833,269.5 345.167,277.5 337.5,285.5C 334.183,286.497 330.85,287.497 327.5,288.5C 335.167,280.5 342.833,272.5 350.5,264.5C 353.699,263.101 357.032,262.101 360.5,261.5 Z"/></g>
<g><path style="opacity:0.994" fill="#2b2b28" d="M 12.5,223.5 C 13.5137,224.674 14.847,225.34 16.5,225.5C 19.3037,227.405 22.3037,229.071 25.5,230.5C 27.0495,231.441 28.7162,232.107 30.5,232.5C 33.0878,234.625 36.0878,235.958 39.5,236.5C 40.5137,237.674 41.847,238.34 43.5,238.5C 46.0884,240.592 49.0884,241.925 52.5,242.5C 53.9649,243.737 55.6316,244.737 57.5,245.5C 60.4262,246.698 63.4262,247.698 66.5,248.5C 67.7804,249.931 69.4471,250.598 71.5,250.5C 74.5178,252.4 77.8512,253.733 81.5,254.5C 82.7804,255.931 84.4471,256.598 86.5,256.5C 89.2154,258.072 92.2154,259.072 95.5,259.5C 96.7804,260.931 98.4471,261.598 100.5,261.5C 103.683,263.01 107.016,264.343 110.5,265.5C 112.042,266.301 113.708,266.634 115.5,266.5C 118.683,268.01 122.016,269.343 125.5,270.5C 127.042,271.301 128.708,271.634 130.5,271.5C 133.683,273.01 137.016,274.343 140.5,275.5C 142.435,276.15 144.435,276.483 146.5,276.5C 149.55,278.101 152.884,279.101 156.5,279.5C 157.93,280.537 159.597,281.204 161.5,281.5C 164.461,282.323 167.461,282.99 170.5,283.5C 172.599,284.612 174.933,285.279 177.5,285.5C 180.833,286.5 184.167,287.5 187.5,288.5C 189.153,288.66 190.486,289.326 191.5,290.5C 191.5,294.833 191.5,299.167 191.5,303.5C 191.5,305.833 191.5,308.167 191.5,310.5C 191.183,314.702 191.517,318.702 192.5,322.5C 192.554,324.632 193.554,325.965 195.5,326.5C 198.015,329.567 201.349,330.901 205.5,330.5C 207.833,330.5 210.167,330.5 212.5,330.5C 216.833,330.5 221.167,330.5 225.5,330.5C 227.833,330.5 230.167,330.5 232.5,330.5C 236.833,330.5 241.167,330.5 245.5,330.5C 247.833,330.5 250.167,330.5 252.5,330.5C 256.833,330.5 261.167,330.5 265.5,330.5C 267.833,330.5 270.167,330.5 272.5,330.5C 276.833,330.5 281.167,330.5 285.5,330.5C 287.167,330.5 288.833,330.5 290.5,330.5C 247.833,373.5 205.167,416.5 162.5,459.5C 160.167,459.5 157.833,459.5 155.5,459.5C 151.167,459.5 146.833,459.5 142.5,459.5C 140.167,459.5 137.833,459.5 135.5,459.5C 131.167,459.5 126.833,459.5 122.5,459.5C 120.167,459.5 117.833,459.5 115.5,459.5C 111.167,459.5 106.833,459.5 102.5,459.5C 100.167,459.5 97.8333,459.5 95.5,459.5C 91.1667,459.5 86.8333,459.5 82.5,459.5C 80.1667,459.5 77.8333,459.5 75.5,459.5C 71.1667,459.5 66.8333,459.5 62.5,459.5C 60.1667,459.5 57.8333,459.5 55.5,459.5C 51.1667,459.5 46.8333,459.5 42.5,459.5C 40.1667,459.5 37.8333,459.5 35.5,459.5C 31.6814,459.586 28.0148,458.919 24.5,457.5C 23.4863,456.326 22.153,455.66 20.5,455.5C 18.1918,453.529 15.8585,451.529 13.5,449.5C 12.4884,448.128 11.4884,446.795 10.5,445.5C 8.89207,442.618 7.55874,439.618 6.5,436.5C 6.16667,434.5 5.83333,432.5 5.5,430.5C 5.5,426.167 5.5,421.833 5.5,417.5C 5.5,415.167 5.5,412.833 5.5,410.5C 5.5,406.167 5.5,401.833 5.5,397.5C 5.5,395.167 5.5,392.833 5.5,390.5C 5.5,386.167 5.5,381.833 5.5,377.5C 5.5,375.167 5.5,372.833 5.5,370.5C 5.5,366.167 5.5,361.833 5.5,357.5C 5.5,355.167 5.5,352.833 5.5,350.5C 5.5,346.167 5.5,341.833 5.5,337.5C 5.5,335.167 5.5,332.833 5.5,330.5C 5.5,326.167 5.5,321.833 5.5,317.5C 5.5,315.167 5.5,312.833 5.5,310.5C 5.5,306.167 5.5,301.833 5.5,297.5C 5.5,295.167 5.5,292.833 5.5,290.5C 5.5,286.167 5.5,281.833 5.5,277.5C 5.5,275.167 5.5,272.833 5.5,270.5C 5.5,266.167 5.5,261.833 5.5,257.5C 5.5,255.167 5.5,252.833 5.5,250.5C 5.5,246.167 5.5,241.833 5.5,237.5C 5.5,235.167 5.5,232.833 5.5,230.5C 5.17964,227.102 5.51298,223.768 6.5,220.5C 8.52656,221.513 10.5266,222.513 12.5,223.5 Z"/></g>
<g><path style="opacity:0.019" fill="#43443f" d="M 511.5,265.5 C 511.5,267.167 511.5,268.833 511.5,270.5C 509.527,273.139 507.194,275.473 504.5,277.5C 504.5,275.167 504.5,272.833 504.5,270.5C 506.555,268.445 508.888,266.779 511.5,265.5 Z"/></g>
<g><path style="opacity:0.043" fill="#43433f" d="M 169.5,266.5 C 171.292,266.366 172.958,266.699 174.5,267.5C 170.167,272.167 165.833,276.833 161.5,281.5C 159.597,281.204 157.93,280.537 156.5,279.5C 160.5,274.833 164.833,270.5 169.5,266.5 Z"/></g>
<g><path style="opacity:0.043" fill="#43433f" d="M 208.5,267.5 C 208.5,269.833 208.5,272.167 208.5,274.5C 202.833,279.833 197.167,285.167 191.5,290.5C 190.486,289.326 189.153,288.66 187.5,288.5C 194.167,281.167 201.167,274.167 208.5,267.5 Z"/></g>
<g><path style="opacity:0.015" fill="#43443f" d="M 5.5,270.5 C 5.5,272.833 5.5,275.167 5.5,277.5C 4.11467,278.614 2.61467,279.614 1,280.5C 0.397167,276.256 1.89717,272.923 5.5,270.5 Z"/></g>
<g><path style="opacity:0.043" fill="#44443f" d="M 184.5,270.5 C 186.786,270.595 188.786,271.262 190.5,272.5C 185.833,276.5 181.5,280.833 177.5,285.5C 174.933,285.279 172.599,284.612 170.5,283.5C 175.774,279.895 180.441,275.562 184.5,270.5 Z"/></g>
<g><path style="opacity:0.043" fill="#43443f" d="M 331.5,270.5 C 323.833,278.833 315.833,286.833 307.5,294.5C 307.5,292.167 307.5,289.833 307.5,287.5C 313.167,282.167 318.833,276.833 324.5,271.5C 326.861,271.326 329.194,270.993 331.5,270.5 Z"/></g>
<g><path style="opacity:0.019" fill="#43443f" d="M 511.5,285.5 C 511.5,287.167 511.5,288.833 511.5,290.5C 509.527,293.139 507.194,295.473 504.5,297.5C 504.5,295.167 504.5,292.833 504.5,290.5C 506.555,288.445 508.888,286.779 511.5,285.5 Z"/></g>
<g><path style="opacity:0.043" fill="#43443f" d="M 208.5,287.5 C 208.5,289.833 208.5,292.167 208.5,294.5C 202.833,299.833 197.167,305.167 191.5,310.5C 191.5,308.167 191.5,305.833 191.5,303.5C 197.167,298.167 202.833,292.833 208.5,287.5 Z"/></g>
<g><path style="opacity:0.015" fill="#43443f" d="M 5.5,290.5 C 5.5,292.833 5.5,295.167 5.5,297.5C 4.11467,298.614 2.61467,299.614 1,300.5C 0.397167,296.256 1.89717,292.923 5.5,290.5 Z"/></g>
<g><path style="opacity:0.044" fill="#43443f" d="M 324.5,291.5 C 324.5,293.833 324.5,296.167 324.5,298.5C 313.5,308.833 302.833,319.5 292.5,330.5C 291.833,330.5 291.167,330.5 290.5,330.5C 288.833,330.5 287.167,330.5 285.5,330.5C 290.167,325.5 294.833,320.5 299.5,315.5C 302.855,314.145 305.189,311.811 306.5,308.5C 307.167,308.5 307.5,308.167 307.5,307.5C 313.167,302.167 318.833,296.833 324.5,291.5 Z"/></g>
<g><path style="opacity:0.019" fill="#43443f" d="M 511.5,305.5 C 511.5,307.167 511.5,308.833 511.5,310.5C 509.527,313.139 507.194,315.473 504.5,317.5C 504.5,315.167 504.5,312.833 504.5,310.5C 506.555,308.445 508.888,306.779 511.5,305.5 Z"/></g>
<g><path style="opacity:0.043" fill="#43433f" d="M 208.5,307.5 C 209.674,308.514 210.34,309.847 210.5,311.5C 205.833,316.833 200.833,321.833 195.5,326.5C 193.554,325.965 192.554,324.632 192.5,322.5C 197.833,317.5 203.167,312.5 208.5,307.5 Z"/></g>
<g><path style="opacity:0.015" fill="#43443f" d="M 5.5,310.5 C 5.5,312.833 5.5,315.167 5.5,317.5C 4.11467,318.614 2.61467,319.614 1,320.5C 0.397167,316.256 1.89717,312.923 5.5,310.5 Z"/></g>
<g><path style="opacity:0.043" fill="#43443f" d="M 324.5,311.5 C 324.5,313.833 324.5,316.167 324.5,318.5C 320.167,322.167 316.167,326.167 312.5,330.5C 310.167,330.5 307.833,330.5 305.5,330.5C 311.5,323.833 317.833,317.5 324.5,311.5 Z"/></g>
<g><path style="opacity:0.043" fill="#43443f" d="M 219.5,315.5 C 221.833,315.5 224.167,315.5 226.5,315.5C 221.833,320.5 217.167,325.5 212.5,330.5C 210.167,330.5 207.833,330.5 205.5,330.5C 210.167,325.5 214.833,320.5 219.5,315.5 Z"/></g>
<g><path style="opacity:0.043" fill="#43443f" d="M 239.5,315.5 C 241.833,315.5 244.167,315.5 246.5,315.5C 241.833,320.5 237.167,325.5 232.5,330.5C 230.167,330.5 227.833,330.5 225.5,330.5C 230.167,325.5 234.833,320.5 239.5,315.5 Z"/></g>
<g><path style="opacity:0.043" fill="#43443f" d="M 259.5,315.5 C 261.833,315.5 264.167,315.5 266.5,315.5C 261.833,320.5 257.167,325.5 252.5,330.5C 250.167,330.5 247.833,330.5 245.5,330.5C 250.167,325.5 254.833,320.5 259.5,315.5 Z"/></g>
<g><path style="opacity:0.043" fill="#43443f" d="M 279.5,315.5 C 281.833,315.5 284.167,315.5 286.5,315.5C 281.833,320.5 277.167,325.5 272.5,330.5C 270.167,330.5 267.833,330.5 265.5,330.5C 270.167,325.5 274.833,320.5 279.5,315.5 Z"/></g>
<g><path style="opacity:0.997" fill="#2b2b28" d="M 504.5,277.5 C 504.5,281.833 504.5,286.167 504.5,290.5C 504.5,292.833 504.5,295.167 504.5,297.5C 504.5,301.833 504.5,306.167 504.5,310.5C 504.5,312.833 504.5,315.167 504.5,317.5C 504.5,321.833 504.5,326.167 504.5,330.5C 504.5,332.833 504.5,335.167 504.5,337.5C 504.5,341.833 504.5,346.167 504.5,350.5C 504.5,352.833 504.5,355.167 504.5,357.5C 504.5,361.833 504.5,366.167 504.5,370.5C 504.5,372.833 504.5,375.167 504.5,377.5C 504.5,381.833 504.5,386.167 504.5,390.5C 504.5,392.833 504.5,395.167 504.5,397.5C 504.5,401.833 504.5,406.167 504.5,410.5C 504.5,412.833 504.5,415.167 504.5,417.5C 504.5,421.833 504.5,426.167 504.5,430.5C 503.99,433.539 503.323,436.539 502.5,439.5C 498.5,448.167 492.167,454.5 483.5,458.5C 480.873,459.092 478.206,459.425 475.5,459.5C 471.167,459.5 466.833,459.5 462.5,459.5C 460.167,459.5 457.833,459.5 455.5,459.5C 451.167,459.5 446.833,459.5 442.5,459.5C 440.167,459.5 437.833,459.5 435.5,459.5C 431.167,459.5 426.833,459.5 422.5,459.5C 420.167,459.5 417.833,459.5 415.5,459.5C 411.167,459.5 406.833,459.5 402.5,459.5C 400.167,459.5 397.833,459.5 395.5,459.5C 391.167,459.5 386.833,459.5 382.5,459.5C 380.167,459.5 377.833,459.5 375.5,459.5C 371.167,459.5 366.833,459.5 362.5,459.5C 360.167,459.5 357.833,459.5 355.5,459.5C 351.167,459.5 346.833,459.5 342.5,459.5C 340.167,459.5 337.833,459.5 335.5,459.5C 331.167,459.5 326.833,459.5 322.5,459.5C 382.833,398.5 443.5,337.833 504.5,277.5 Z"/></g>
<g><path style="opacity:0.019" fill="#43443f" d="M 511.5,325.5 C 511.5,327.167 511.5,328.833 511.5,330.5C 509.527,333.139 507.194,335.473 504.5,337.5C 504.5,335.167 504.5,332.833 504.5,330.5C 506.555,328.445 508.888,326.779 511.5,325.5 Z"/></g>
<g><path style="opacity:0.015" fill="#43443f" d="M 5.5,330.5 C 5.5,332.833 5.5,335.167 5.5,337.5C 4.11467,338.614 2.61467,339.614 1,340.5C 0.397167,336.256 1.89717,332.923 5.5,330.5 Z"/></g>
<g><path style="opacity:0.019" fill="#43443f" d="M 511.5,345.5 C 511.5,347.167 511.5,348.833 511.5,350.5C 509.527,353.139 507.194,355.473 504.5,357.5C 504.5,355.167 504.5,352.833 504.5,350.5C 506.555,348.445 508.888,346.779 511.5,345.5 Z"/></g>
<g><path style="opacity:0.015" fill="#43443f" d="M 5.5,350.5 C 5.5,352.833 5.5,355.167 5.5,357.5C 4.11467,358.614 2.61467,359.614 1,360.5C 0.397167,356.256 1.89717,352.923 5.5,350.5 Z"/></g>
<g><path style="opacity:0.019" fill="#43443f" d="M 511.5,365.5 C 511.5,367.167 511.5,368.833 511.5,370.5C 509.527,373.139 507.194,375.473 504.5,377.5C 504.5,375.167 504.5,372.833 504.5,370.5C 506.555,368.445 508.888,366.779 511.5,365.5 Z"/></g>
<g><path style="opacity:0.015" fill="#43443f" d="M 5.5,370.5 C 5.5,372.833 5.5,375.167 5.5,377.5C 4.11467,378.614 2.61467,379.614 1,380.5C 0.397167,376.256 1.89717,372.923 5.5,370.5 Z"/></g>
<g><path style="opacity:0.019" fill="#43443f" d="M 511.5,385.5 C 511.5,387.167 511.5,388.833 511.5,390.5C 509.527,393.139 507.194,395.473 504.5,397.5C 504.5,395.167 504.5,392.833 504.5,390.5C 506.555,388.445 508.888,386.779 511.5,385.5 Z"/></g>
<g><path style="opacity:0.015" fill="#43443f" d="M 5.5,390.5 C 5.5,392.833 5.5,395.167 5.5,397.5C 4.11467,398.614 2.61467,399.614 1,400.5C 0.397167,396.256 1.89717,392.923 5.5,390.5 Z"/></g>
<g><path style="opacity:0.019" fill="#43443f" d="M 511.5,405.5 C 511.5,407.167 511.5,408.833 511.5,410.5C 509.527,413.139 507.194,415.473 504.5,417.5C 504.5,415.167 504.5,412.833 504.5,410.5C 506.555,408.445 508.888,406.779 511.5,405.5 Z"/></g>
<g><path style="opacity:0.015" fill="#43443f" d="M 5.5,410.5 C 5.5,412.833 5.5,415.167 5.5,417.5C 4.11467,418.614 2.61467,419.614 1,420.5C 0.397167,416.256 1.89717,412.923 5.5,410.5 Z"/></g>
<g><path style="opacity:0.021" fill="#43443f" d="M 511.5,425.5 C 511.5,427.167 511.5,428.833 511.5,430.5C 508.86,433.806 505.86,436.806 502.5,439.5C 503.323,436.539 503.99,433.539 504.5,430.5C 506.555,428.445 508.888,426.779 511.5,425.5 Z"/></g>
<g><path style="opacity:0.015" fill="#43433f" d="M 5.5,430.5 C 5.83333,432.5 6.16667,434.5 6.5,436.5C 4.82504,438.002 2.9917,439.335 1,440.5C 0.397167,436.256 1.89717,432.923 5.5,430.5 Z"/></g>
<g><path style="opacity:0.027" fill="#44443f" d="M 10.5,445.5 C 11.4884,446.795 12.4884,448.128 13.5,449.5C 9.5014,453.33 5.33473,456.997 1,460.5C 0.333333,458.833 0.333333,457.167 1,455.5C 3.66817,451.666 6.83484,448.333 10.5,445.5 Z"/></g>
<g><path style="opacity:0.038" fill="#43443f" d="M 511.5,445.5 C 511.5,447.167 511.5,448.833 511.5,450.5C 491.5,471.167 471.167,491.5 450.5,511.5C 448.833,511.5 447.167,511.5 445.5,511.5C 465.935,489.564 486.935,468.064 508.5,447C 509.527,446.487 510.527,445.987 511.5,445.5 Z"/></g>
<g><path style="opacity:0.036" fill="#44443f" d="M 20.5,455.5 C 22.153,455.66 23.4863,456.326 24.5,457.5C 17.1714,465.662 9.33802,473.328 1,480.5C 0.143313,477.449 0.809979,474.783 3,472.5C 8.70192,466.63 14.5353,460.964 20.5,455.5 Z"/></g>
<g><path style="opacity:0.04" fill="#43443f" d="M 483.5,458.5 C 466.14,476.527 448.473,494.194 430.5,511.5C 428.833,511.5 427.167,511.5 425.5,511.5C 441.803,493.863 458.469,476.53 475.5,459.5C 478.206,459.425 480.873,459.092 483.5,458.5 Z"/></g>
<g><path style="opacity:0.039" fill="#43443f" d="M 35.5,459.5 C 37.8333,459.5 40.1667,459.5 42.5,459.5C 29.1726,473.661 15.3392,487.327 1,500.5C 0.143313,497.449 0.809979,494.783 3,492.5C 14.0354,481.632 24.8688,470.632 35.5,459.5 Z"/></g>
<g><path style="opacity:0.04" fill="#43443f" d="M 55.5,459.5 C 57.8333,459.5 60.1667,459.5 62.5,459.5C 45.473,477.194 28.1396,494.527 10.5,511.5C 8.83333,511.5 7.16667,511.5 5.5,511.5C 21.8025,493.863 38.4692,476.53 55.5,459.5 Z"/></g>
<g><path style="opacity:0.04" fill="#43443f" d="M 75.5,459.5 C 77.8333,459.5 80.1667,459.5 82.5,459.5C 65.473,477.194 48.1396,494.527 30.5,511.5C 28.8333,511.5 27.1667,511.5 25.5,511.5C 41.8025,493.863 58.4692,476.53 75.5,459.5 Z"/></g>
<g><path style="opacity:0.04" fill="#43443f" d="M 95.5,459.5 C 97.8333,459.5 100.167,459.5 102.5,459.5C 85.473,477.194 68.1396,494.527 50.5,511.5C 48.8333,511.5 47.1667,511.5 45.5,511.5C 61.8025,493.863 78.4692,476.53 95.5,459.5 Z"/></g>
<g><path style="opacity:0.04" fill="#43443f" d="M 115.5,459.5 C 117.833,459.5 120.167,459.5 122.5,459.5C 105.473,477.194 88.1396,494.527 70.5,511.5C 68.8333,511.5 67.1667,511.5 65.5,511.5C 81.8025,493.863 98.4692,476.53 115.5,459.5 Z"/></g>
<g><path style="opacity:0.04" fill="#43443f" d="M 135.5,459.5 C 137.833,459.5 140.167,459.5 142.5,459.5C 125.473,477.194 108.14,494.527 90.5,511.5C 88.8333,511.5 87.1667,511.5 85.5,511.5C 101.803,493.863 118.469,476.53 135.5,459.5 Z"/></g>
<g><path style="opacity:0.04" fill="#43443f" d="M 155.5,459.5 C 157.833,459.5 160.167,459.5 162.5,459.5C 145.473,477.194 128.14,494.527 110.5,511.5C 108.833,511.5 107.167,511.5 105.5,511.5C 121.803,493.863 138.469,476.53 155.5,459.5 Z"/></g>
<g><path style="opacity:0.04" fill="#43443f" d="M 175.5,459.5 C 177.833,459.5 180.167,459.5 182.5,459.5C 165.473,477.194 148.14,494.527 130.5,511.5C 128.833,511.5 127.167,511.5 125.5,511.5C 141.803,493.863 158.469,476.53 175.5,459.5 Z"/></g>
<g><path style="opacity:0.04" fill="#43443f" d="M 195.5,459.5 C 197.833,459.5 200.167,459.5 202.5,459.5C 185.473,477.194 168.14,494.527 150.5,511.5C 148.833,511.5 147.167,511.5 145.5,511.5C 161.803,493.863 178.469,476.53 195.5,459.5 Z"/></g>
<g><path style="opacity:0.04" fill="#43443f" d="M 215.5,459.5 C 217.833,459.5 220.167,459.5 222.5,459.5C 205.473,477.194 188.14,494.527 170.5,511.5C 168.833,511.5 167.167,511.5 165.5,511.5C 181.803,493.863 198.469,476.53 215.5,459.5 Z"/></g>
<g><path style="opacity:0.04" fill="#43443f" d="M 235.5,459.5 C 237.833,459.5 240.167,459.5 242.5,459.5C 225.473,477.194 208.14,494.527 190.5,511.5C 188.833,511.5 187.167,511.5 185.5,511.5C 201.803,493.863 218.469,476.53 235.5,459.5 Z"/></g>
<g><path style="opacity:0.04" fill="#43443f" d="M 255.5,459.5 C 257.833,459.5 260.167,459.5 262.5,459.5C 245.473,477.194 228.14,494.527 210.5,511.5C 208.833,511.5 207.167,511.5 205.5,511.5C 221.803,493.863 238.469,476.53 255.5,459.5 Z"/></g>
<g><path style="opacity:0.04" fill="#43443f" d="M 275.5,459.5 C 277.833,459.5 280.167,459.5 282.5,459.5C 265.473,477.194 248.14,494.527 230.5,511.5C 228.833,511.5 227.167,511.5 225.5,511.5C 241.803,493.863 258.469,476.53 275.5,459.5 Z"/></g>
<g><path style="opacity:0.04" fill="#43443f" d="M 295.5,459.5 C 297.833,459.5 300.167,459.5 302.5,459.5C 285.473,477.194 268.14,494.527 250.5,511.5C 248.833,511.5 247.167,511.5 245.5,511.5C 261.803,493.863 278.469,476.53 295.5,459.5 Z"/></g>
<g><path style="opacity:0.04" fill="#43443f" d="M 315.5,459.5 C 317.833,459.5 320.167,459.5 322.5,459.5C 305.473,477.194 288.14,494.527 270.5,511.5C 268.833,511.5 267.167,511.5 265.5,511.5C 281.803,493.863 298.469,476.53 315.5,459.5 Z"/></g>
<g><path style="opacity:0.04" fill="#43443f" d="M 335.5,459.5 C 337.833,459.5 340.167,459.5 342.5,459.5C 325.473,477.194 308.14,494.527 290.5,511.5C 288.833,511.5 287.167,511.5 285.5,511.5C 301.803,493.863 318.469,476.53 335.5,459.5 Z"/></g>
<g><path style="opacity:0.04" fill="#43443f" d="M 355.5,459.5 C 357.833,459.5 360.167,459.5 362.5,459.5C 345.473,477.194 328.14,494.527 310.5,511.5C 308.833,511.5 307.167,511.5 305.5,511.5C 321.803,493.863 338.469,476.53 355.5,459.5 Z"/></g>
<g><path style="opacity:0.04" fill="#43443f" d="M 375.5,459.5 C 377.833,459.5 380.167,459.5 382.5,459.5C 365.473,477.194 348.14,494.527 330.5,511.5C 328.833,511.5 327.167,511.5 325.5,511.5C 341.803,493.863 358.469,476.53 375.5,459.5 Z"/></g>
<g><path style="opacity:0.04" fill="#43443f" d="M 395.5,459.5 C 397.833,459.5 400.167,459.5 402.5,459.5C 385.473,477.194 368.14,494.527 350.5,511.5C 348.833,511.5 347.167,511.5 345.5,511.5C 361.803,493.863 378.469,476.53 395.5,459.5 Z"/></g>
<g><path style="opacity:0.04" fill="#43443f" d="M 415.5,459.5 C 417.833,459.5 420.167,459.5 422.5,459.5C 405.473,477.194 388.14,494.527 370.5,511.5C 368.833,511.5 367.167,511.5 365.5,511.5C 381.803,493.863 398.469,476.53 415.5,459.5 Z"/></g>
<g><path style="opacity:0.04" fill="#43443f" d="M 435.5,459.5 C 437.833,459.5 440.167,459.5 442.5,459.5C 425.473,477.194 408.14,494.527 390.5,511.5C 388.833,511.5 387.167,511.5 385.5,511.5C 401.803,493.863 418.469,476.53 435.5,459.5 Z"/></g>
<g><path style="opacity:0.04" fill="#43443f" d="M 455.5,459.5 C 457.833,459.5 460.167,459.5 462.5,459.5C 445.473,477.194 428.14,494.527 410.5,511.5C 408.833,511.5 407.167,511.5 405.5,511.5C 421.803,493.863 438.469,476.53 455.5,459.5 Z"/></g>
<g><path style="opacity:0.035" fill="#43443f" d="M 511.5,465.5 C 511.5,467.167 511.5,468.833 511.5,470.5C 498.167,484.5 484.5,498.167 470.5,511.5C 468.833,511.5 467.167,511.5 465.5,511.5C 479.266,496.232 493.6,481.398 508.5,467C 509.527,466.487 510.527,465.987 511.5,465.5 Z"/></g>
<g><path style="opacity:0.029" fill="#43443f" d="M 511.5,485.5 C 511.5,487.167 511.5,488.833 511.5,490.5C 504.833,497.833 497.833,504.833 490.5,511.5C 488.833,511.5 487.167,511.5 485.5,511.5C 493.167,501.833 501.833,493.167 511.5,485.5 Z"/></g>
<g><path style="opacity:0.009" fill="#43443f" d="M 511.5,505.5 C 511.5,507.167 511.5,508.833 511.5,510.5C 510.833,510.5 510.5,510.833 510.5,511.5C 508.833,511.5 507.167,511.5 505.5,511.5C 506.5,508.5 508.5,506.5 511.5,505.5 Z"/></g>
</svg>
